<?xml version="1.0" encoding="utf-8"?>
<!-- Generator: Adobe Illustrator 22.0.0, SVG Export Plug-In . SVG Version: 6.00 Build 0)  -->
<svg version="1.1" id="Слой_2" xmlns="http://www.w3.org/2000/svg" xmlns:xlink="http://www.w3.org/1999/xlink" x="0px" y="0px"
	 viewBox="0 0 935.2 325.3" style="enable-background:new 0 0 935.2 325.3;" xml:space="preserve">
<style type="text/css">
	.st0{opacity:0.88;fill:#F7A900;}
	.st1{opacity:0.88;fill:#FFC000;}
	.st2{opacity:0.88;fill:#F7D700;}
	.st3{fill:url(#SVGID_1_);}
	.st4{fill:url(#SVGID_2_);}
	.st5{fill:#4D4D4D;}
	.st6{fill:#4A4A4A;}
	.st7{fill:#6A6A6A;}
	.st8{fill:#343434;}
	.st9{fill:#FFFFFF;}
</style>
<g>
	<polygon class="st0" points="247.6,162.4 304.1,162.4 275.6,146.5 	"/>
	<polygon class="st1" points="247.6,162.4 275.6,146.5 275.6,117.4 	"/>
	<polygon class="st2" points="275.6,146.5 304.1,162.4 275.6,117.4 	"/>
</g>
<g>
	<linearGradient id="SVGID_1_" gradientUnits="userSpaceOnUse" x1="31.5612" y1="290.3831" x2="264.8945" y2="133.0498">
		<stop  offset="0" style="stop-color:#000000"/>
		<stop  offset="1" style="stop-color:#4B4B4B"/>
	</linearGradient>
	<polygon class="st3" points="201.9,-0.4 0,325.3 240.7,325.3 240.7,281.9 80.7,281.9 202.1,85.6 242.6,151 269.2,108 	"/>
	<linearGradient id="SVGID_2_" gradientUnits="userSpaceOnUse" x1="105.6237" y1="400.2216" x2="338.957" y2="242.8883">
		<stop  offset="0" style="stop-color:#000000"/>
		<stop  offset="1" style="stop-color:#4B4B4B"/>
	</linearGradient>
	<polygon class="st4" points="255.8,172.5 309.3,172.5 404.3,325.3 254.5,325.3 254.5,281.9 276.3,281.9 323.5,281.9 	"/>
</g>
<polygon class="st5" points="175.6,42.1 228.3,42.1 202.1,85.6 "/>
<polygon class="st6" points="255.3,85.6 202.1,85.6 228.3,42.1 "/>
<polygon class="st7" points="228.3,42.1 175.6,42.1 202.1,-0.4 "/>
<polygon class="st8" points="202.1,85.6 149.3,84.6 175.6,42.1 "/>
<g>
	<path class="st9" d="M399,113.8l7.7,5.3c-6.1,8.4-15,12.5-26.5,12.5c-10.7,0-19.4-3.4-26.3-10.3c-6.9-6.9-10.3-15.6-10.3-26.3
		c0-10.7,3.5-19.5,10.5-26.2c7-6.8,15.8-10.1,26.5-10.1c5,0,9.7,0.9,14.3,2.8c4.6,1.9,8.1,4.5,10.6,7.9l-7.6,5.9
		c-1.7-2.4-4.1-4.4-7.3-5.9c-3.1-1.5-6.5-2.3-10-2.3c-7.8,0-14.2,2.7-19.1,8c-4.9,5.4-7.3,12-7.3,19.8c0,8,2.4,14.6,7.2,19.9
		c4.8,5.3,11.1,8,18.9,8C388.6,123,394.8,119.9,399,113.8z"/>
	<path class="st9" d="M454.9,89c4.8,4.6,7.2,10.4,7.2,17.5c0,7.1-2.4,13-7.2,17.6c-4.8,4.6-10.8,7-17.9,7s-13.1-2.3-17.8-7
		c-4.8-4.6-7.2-10.5-7.2-17.6c0-7.1,2.4-13,7.1-17.5c4.7-4.6,10.7-6.9,17.9-6.9C444.1,82.1,450.1,84.4,454.9,89z M448.3,118.4
		c2.8-3.3,4.2-7.3,4.2-11.9c0-4.6-1.4-8.6-4.2-11.9c-2.8-3.3-6.6-4.9-11.3-4.9c-4.8,0-8.5,1.6-11.3,4.9c-2.8,3.3-4.2,7.2-4.2,11.9
		c0,4.6,1.4,8.6,4.2,11.9c2.8,3.3,6.5,4.9,11.3,4.9C441.7,123.4,445.5,121.7,448.3,118.4z"/>
	<path class="st9" d="M474.4,83.4h8.7c0.3,3.1,0.4,5.7,0.4,7.6h0.3c1.2-2.5,3.2-4.7,6-6.4c2.8-1.7,5.8-2.5,9.1-2.5
		c5.7,0,10,1.8,12.9,5.3c2.9,3.5,4.4,8.1,4.4,13.6v28.8H507v-25.8c0-9.5-3.5-14.2-10.6-14.2c-3.7,0-6.6,1.4-9,4.2
		c-2.3,2.8-3.5,6.5-3.5,11.1v24.7h-9.2V93.4C474.8,89.4,474.6,86.1,474.4,83.4z"/>
	<path class="st9" d="M563.3,89.8l-6.4,5.4c-1-1.7-2.5-3.1-4.5-4.2c-1.9-1.1-4-1.6-6.3-1.6c-2.4,0-4.4,0.5-6.1,1.5
		c-1.7,1-2.5,2.5-2.5,4.6c0,1.8,0.8,3.2,2.5,4.2c1.6,1,4.3,1.9,8.1,2.7c10.4,2.3,15.6,6.9,15.6,13.7c0,5.1-1.8,8.9-5.3,11.3
		c-3.6,2.4-8,3.7-13.2,3.7c-3.7,0-7.2-0.7-10.5-2.2c-3.3-1.4-6.1-3.5-8.2-6.2l6.6-5.6c1.2,1.9,3,3.4,5.2,4.7
		c2.3,1.2,4.6,1.8,7.1,1.8c2.6,0,4.8-0.5,6.6-1.6c1.8-1.1,2.6-2.8,2.6-5.1c0-2-0.9-3.6-2.8-4.6c-1.9-1-5-2.1-9.4-3.1
		c-1.8-0.5-3.4-0.9-4.8-1.5c-1.4-0.5-2.8-1.3-4.2-2.2c-1.4-0.9-2.5-2.2-3.3-3.7c-0.8-1.5-1.2-3.3-1.2-5.4c0-4.7,1.7-8.2,5.1-10.6
		c3.4-2.4,7.6-3.6,12.4-3.6c3.4,0,6.6,0.7,9.8,2C559.3,85.5,561.6,87.4,563.3,89.8z"/>
	<path class="st9" d="M598.1,83.4v7.5h-12.3v24.2c0,2.8,0.5,4.8,1.6,6c1,1.2,2.7,1.8,5,1.8c2,0,3.8-0.4,5.4-1.2l0.3,7.5
		c-2.4,0.8-5,1.3-7.8,1.3c-4.4,0-7.7-1.2-10-3.7c-2.3-2.4-3.5-6.1-3.5-10.8V90.9h-8.9v-7.5h8.9V70.1h9.1v13.3H598.1z"/>
	<path class="st9" d="M636.5,101v-1.3c0-3.3-1-5.9-3.1-7.6c-2.1-1.7-4.9-2.6-8.4-2.6c-5.2,0-9.6,1.8-13.2,5.4l-4.9-5.9
		c4.8-4.6,11.2-7,19-7c6.4,0,11.2,1.7,14.5,5c3.3,3.4,4.9,7.8,4.9,13.2v20.3c0,4.1,0.2,7.1,0.7,9.2h-8.3c-0.5-2.2-0.8-4.4-0.8-6.7
		h-0.3c-3.5,5.2-8.7,7.8-15.6,7.8c-2,0-3.9-0.3-5.8-0.8c-1.9-0.5-3.7-1.3-5.4-2.4c-1.7-1-3.1-2.5-4.1-4.5c-1-1.9-1.6-4.2-1.6-6.7
		c0-2.7,0.6-5,1.9-7c1.3-2,2.9-3.5,4.9-4.6c2-1.1,4.5-1.9,7.5-2.5c3-0.6,5.9-1,8.6-1.2C629.7,101.1,632.9,101,636.5,101z
		 M636.5,107.7h-2.3c-13.8,0-20.7,2.9-20.7,8.8c0,2.5,0.9,4.4,2.7,5.5c1.8,1.1,4.1,1.7,6.8,1.7c4.2,0,7.5-1.3,9.8-3.8
		c2.4-2.5,3.6-5.8,3.6-9.8V107.7z"/>
	<path class="st9" d="M660.3,83.4h8.7c0.3,3.1,0.4,5.7,0.4,7.6h0.3c1.2-2.5,3.2-4.7,6-6.4c2.8-1.7,5.8-2.5,9.1-2.5
		c5.7,0,10,1.8,12.9,5.3c2.9,3.5,4.4,8.1,4.4,13.6v28.8h-9.2v-25.8c0-9.5-3.5-14.2-10.6-14.2c-3.7,0-6.6,1.4-9,4.2
		c-2.3,2.8-3.5,6.5-3.5,11.1v24.7h-9.2V93.4C660.7,89.4,660.5,86.1,660.3,83.4z"/>
	<path class="st9" d="M740.4,83.4v7.5h-12.3v24.2c0,2.8,0.5,4.8,1.6,6c1,1.2,2.7,1.8,5,1.8c2,0,3.8-0.4,5.4-1.2l0.3,7.5
		c-2.4,0.8-5,1.3-7.8,1.3c-4.4,0-7.7-1.2-10-3.7c-2.3-2.4-3.5-6.1-3.5-10.8V90.9h-8.9v-7.5h8.9V70.1h9.1v13.3H740.4z"/>
	<path class="st9" d="M455,178.1v69.4h-9.7v-69.4H455z"/>
	<path class="st9" d="M471,201h8.7c0.3,3.1,0.4,5.7,0.4,7.6h0.3c1.2-2.5,3.2-4.7,6-6.4c2.8-1.7,5.8-2.5,9.1-2.5
		c5.7,0,10,1.8,12.9,5.3c2.9,3.5,4.4,8.1,4.4,13.6v28.8h-9.2v-25.8c0-9.5-3.5-14.2-10.6-14.2c-3.7,0-6.6,1.4-9,4.2
		c-2.3,2.8-3.5,6.5-3.5,11.1v24.7h-9.2V211C471.3,207,471.2,203.7,471,201z"/>
	<path class="st9" d="M568.9,201l-18.6,46.5h-10L521.3,201h10.2l13.6,36.6h0.2l13.7-36.6H568.9z"/>
	<path class="st9" d="M621.1,223.8c0,1.4,0,2.4-0.1,3.1h-36.8c0.1,4,1.7,7.3,4.6,10c2.9,2.7,6.4,4.1,10.5,4.1
		c5.8,0,10.3-2.4,13.5-7.1l6.5,5.2c-4.9,6.3-11.6,9.5-20,9.5c-7.1,0-13-2.3-17.6-6.8c-4.6-4.5-6.9-10.4-6.9-17.6
		c0-7.2,2.3-13.1,6.9-17.7c4.6-4.6,10.3-6.9,17.2-6.9c6.9,0,12.3,2.2,16.3,6.5C619.1,210.6,621.1,216.5,621.1,223.8z M584.1,220.1
		h27.6c-0.1-3.9-1.3-7-3.5-9.5c-2.2-2.5-5.4-3.7-9.5-3.7c-3.9,0-7.3,1.3-10,3.8C586,213.4,584.5,216.5,584.1,220.1z"/>
	<path class="st9" d="M665.4,207.4l-6.4,5.4c-1-1.7-2.5-3.1-4.5-4.2c-1.9-1.1-4-1.6-6.3-1.6c-2.4,0-4.4,0.5-6.1,1.5
		c-1.7,1-2.5,2.5-2.5,4.6c0,1.8,0.8,3.2,2.5,4.2c1.6,1,4.3,1.9,8.1,2.7c10.4,2.3,15.6,6.9,15.6,13.7c0,5.1-1.8,8.9-5.3,11.3
		c-3.6,2.5-8,3.7-13.2,3.7c-3.7,0-7.2-0.7-10.5-2.2s-6.1-3.5-8.2-6.2l6.6-5.6c1.2,1.9,3,3.4,5.2,4.7c2.3,1.2,4.6,1.8,7.1,1.8
		c2.6,0,4.8-0.5,6.6-1.6c1.8-1.1,2.6-2.8,2.6-5.1c0-2-0.9-3.6-2.8-4.6c-1.9-1-5-2.1-9.4-3.1c-1.8-0.5-3.4-0.9-4.8-1.5
		c-1.4-0.5-2.8-1.3-4.2-2.2c-1.4-0.9-2.5-2.2-3.3-3.7c-0.8-1.5-1.2-3.3-1.2-5.4c0-4.7,1.7-8.2,5.1-10.6c3.4-2.4,7.6-3.6,12.4-3.6
		c3.4,0,6.6,0.7,9.8,2C661.4,203.1,663.7,205,665.4,207.4z"/>
	<path class="st9" d="M700.2,201v7.5h-12.3v24.2c0,2.8,0.5,4.8,1.6,6c1,1.2,2.7,1.8,5,1.8c2,0,3.8-0.4,5.4-1.2l0.3,7.5
		c-2.4,0.8-5,1.3-7.8,1.3c-4.4,0-7.7-1.2-10-3.7c-2.3-2.5-3.5-6.1-3.5-10.8v-25.2h-8.9V201h8.9v-13.3h9.1V201H700.2z"/>
	<path class="st9" d="M718.7,208.6c1.2-2.6,3.2-4.8,5.8-6.4c2.6-1.7,5.6-2.5,9-2.5c6.9,0,11.7,3.1,14.4,9.3c1.6-2.9,3.8-5.2,6.6-6.9
		c2.8-1.6,5.9-2.4,9.2-2.4c5.7,0,10,1.8,12.9,5.3c2.9,3.5,4.4,8.1,4.4,13.6v28.8h-9.2v-25.8c0-9.5-3.4-14.2-10.3-14.2
		c-3.9,0-6.9,1.5-8.8,4.4c-2,2.9-2.9,6.4-2.9,10.5v25.1h-9.2v-27.6c0-8.2-3.3-12.3-9.8-12.3c-3.4,0-6.2,1.4-8.5,4.2
		c-2.3,2.8-3.4,6.5-3.4,11.1v24.7h-9.2V211c0-4-0.1-7.3-0.4-10h8.7c0.3,3.1,0.4,5.7,0.4,7.6H718.7z"/>
	<path class="st9" d="M839.9,223.8c0,1.4,0,2.4-0.1,3.1H803c0.1,4,1.7,7.3,4.6,10c2.9,2.7,6.4,4.1,10.5,4.1c5.8,0,10.3-2.4,13.5-7.1
		l6.5,5.2c-4.9,6.3-11.6,9.5-20,9.5c-7.1,0-13-2.3-17.6-6.8c-4.6-4.5-6.9-10.4-6.9-17.6c0-7.2,2.3-13.1,6.9-17.7
		c4.6-4.6,10.3-6.9,17.2-6.9c6.9,0,12.3,2.2,16.3,6.5C837.9,210.6,839.9,216.5,839.9,223.8z M803,220.1h27.6c-0.1-3.9-1.3-7-3.5-9.5
		c-2.2-2.5-5.4-3.7-9.5-3.7c-3.9,0-7.3,1.3-10,3.8C804.8,213.4,803.3,216.5,803,220.1z"/>
	<path class="st9" d="M852.4,201h8.7c0.3,3.1,0.4,5.7,0.4,7.6h0.3c1.2-2.5,3.2-4.7,6-6.4c2.8-1.7,5.8-2.5,9.1-2.5
		c5.7,0,10,1.8,12.9,5.3c2.9,3.5,4.4,8.1,4.4,13.6v28.8H885v-25.8c0-9.5-3.5-14.2-10.6-14.2c-3.7,0-6.6,1.4-9,4.2
		c-2.3,2.8-3.5,6.5-3.5,11.1v24.7h-9.2V211C852.8,207,852.6,203.7,852.4,201z"/>
	<path class="st9" d="M932.5,201v7.5h-12.3v24.2c0,2.8,0.5,4.8,1.6,6c1,1.2,2.7,1.8,5,1.8c2,0,3.8-0.4,5.4-1.2l0.3,7.5
		c-2.4,0.8-5,1.3-7.8,1.3c-4.4,0-7.7-1.2-10-3.7c-2.3-2.5-3.5-6.1-3.5-10.8v-25.2h-8.9V201h8.9v-13.3h9.1V201H932.5z"/>
</g>
</svg>
