<?xml version="1.0" encoding="utf-8"?>
<!-- Generator: Adobe Illustrator 22.0.0, SVG Export Plug-In . SVG Version: 6.00 Build 0)  -->
<svg version="1.1" id="Capa_1" xmlns="http://www.w3.org/2000/svg" xmlns:xlink="http://www.w3.org/1999/xlink" x="0px" y="0px"
	 viewBox="0 0 473.2 509.2" style="enable-background:new 0 0 473.2 509.2;" xml:space="preserve">
<style type="text/css">
	.st0{fill:#455A64;}
	.st1{fill:#546E7A;}
	.st2{fill:#CFD8DC;}
	.st3{fill:#384C54;}
</style>
<path class="st0" d="M0.3,304c-0.1,0.6-0.1,1.3-0.2,1.9c-1.2,17.6,12.2,32.9,29.8,34l9.9,139.5c0.4,5.6,5.1,9.9,10.7,9.9h85.3
	c5.6,0,10.3-4.3,10.7-9.9l10-139.5c0.7,0,1.3-0.1,1.9-0.2c17.5-2.2,29.9-18.3,27.7-35.8l-13.7-109.3c-3.3-26.7-26-46.7-52.9-46.7
	H66.9c-26.9,0-49.6,20-52.9,46.7L0.3,304L0.3,304z"/>
<circle class="st1" cx="93.2" cy="73.2" r="53.3"/>
<g>
	<path class="st2" d="M82.5,179.9v-21.3c0-5.9,4.8-10.7,10.7-10.7s10.7,4.8,10.7,10.7v21.3c0,5.9-4.8,10.7-10.7,10.7
		S82.5,185.8,82.5,179.9z"/>
	<path class="st2" d="M82.5,265.2v-42.7c0-5.9,4.8-10.7,10.7-10.7s10.7,4.8,10.7,10.7v42.7c0,5.9-4.8,10.7-10.7,10.7
		S82.5,271.1,82.5,265.2z"/>
</g>
<path class="st3" d="M455.2,286.6v192c0,5.9-4.8,10.7-10.7,10.7h-85.3c-5.9,0-10.7-4.8-10.7-10.7v-192c0-5.9,4.8-10.7,10.7-10.7
	h85.3C450.4,275.9,455.2,280.7,455.2,286.6z"/>
<path class="st3" d="M318.4,158.6v320c0,5.9-4.8,10.7-10.7,10.7h-85.3c-5.9,0-10.7-4.8-10.7-10.7v-320c0-5.9,4.8-10.7,10.7-10.7
	h85.3C313.7,147.9,318.4,152.7,318.4,158.6z"/>
</svg>
